<svg width="16" height="16" viewBox="0 0 16 16" fill="none" xmlns="http://www.w3.org/2000/svg">
<g clip-path="url(#clip0_231_329)">
<path d="M4 14.6668V2.66683C4 2.31321 4.14048 1.97407 4.39052 1.72402C4.64057 1.47397 4.97971 1.3335 5.33333 1.3335H10.6667C11.0203 1.3335 11.3594 1.47397 11.6095 1.72402C11.8595 1.97407 12 2.31321 12 2.66683V14.6668H4Z" stroke="#2E7D5B" stroke-width="1.33333" stroke-linecap="round" stroke-linejoin="round"/>
<path d="M3.99992 8H2.66659C2.31296 8 1.97382 8.14048 1.72378 8.39052C1.47373 8.64057 1.33325 8.97971 1.33325 9.33333V13.3333C1.33325 13.687 1.47373 14.0261 1.72378 14.2761C1.97382 14.5262 2.31296 14.6667 2.66659 14.6667H3.99992" stroke="#2E7D5B" stroke-width="1.33333" stroke-linecap="round" stroke-linejoin="round"/>
<path d="M12 6H13.3333C13.687 6 14.0261 6.14048 14.2761 6.39052C14.5262 6.64057 14.6667 6.97971 14.6667 7.33333V13.3333C14.6667 13.687 14.5262 14.0261 14.2761 14.2761C14.0261 14.5262 13.687 14.6667 13.3333 14.6667H12" stroke="#2E7D5B" stroke-width="1.33333" stroke-linecap="round" stroke-linejoin="round"/>
<path d="M6.66675 4H9.33341" stroke="#2E7D5B" stroke-width="1.33333" stroke-linecap="round" stroke-linejoin="round"/>
<path d="M6.66675 6.6665H9.33341" stroke="#2E7D5B" stroke-width="1.33333" stroke-linecap="round" stroke-linejoin="round"/>
<path d="M6.66675 9.3335H9.33341" stroke="#2E7D5B" stroke-width="1.33333" stroke-linecap="round" stroke-linejoin="round"/>
<path d="M6.66675 12H9.33341" stroke="#2E7D5B" stroke-width="1.33333" stroke-linecap="round" stroke-linejoin="round"/>
</g>
<defs>
<clipPath id="clip0_231_329">
<rect width="16" height="16" fill="white"/>
</clipPath>
</defs>
</svg>
